<?xml version="1.0" standalone="no"?>
<svg xmlns="http://www.w3.org/2000/svg" viewBox="0 0 148.461 29.001" width="148.461" height="29.001"><g fill="#72edca" color="#72edca" transform="translate(0, 0) scale(0.5370371)"><svg width="51.0" height="54.0" x="0.0" y="0.0" viewBox="0 0 51 54"><path fill="currentColor" fill-rule="evenodd" d="M28.58 14.169c5.536 1.088 7.414 1.494 7.385 1.577-.028.065 1.047 3.32 2.396 7.241 1.349 3.911 2.452 7.14 2.452 7.168 0 .036-.085.101-.179.147-.104.055-2.32 2.454-4.923 5.35-2.604 2.897-4.877 5.415-5.056 5.618-.245.258-.35.323-.406.24-.047-.074-3.084-.71-7.659-1.615l-7.574-1.494.02-.221c.018-.12-1.076-3.395-2.406-7.278-2.113-6.125-2.415-7.066-2.283-7.122.085-.027 2.443-2.592 5.226-5.682 5.055-5.599 5.074-5.617 5.32-5.507.141.065 3.593.775 7.687 1.578M22.175.129c-.028.074-.34 2.63-.679 5.692-.5 4.353-.66 5.571-.773 5.626-.076.047-4.707 1.098-10.281 2.343C4.867 15.036.245 16.087.17 16.124c-.075.046-.15.12-.17.175-.019.056 2.085 1.624 4.688 3.497 2.594 1.863 4.707 3.44 4.688 3.496-.16.396-6.197 19.721-6.197 19.823 0 .074.056.147.123.166.056.027 2.508-.978 5.442-2.242 2.933-1.254 5.357-2.26 5.386-2.223 1.264 1.365 14.299 15.045 14.403 15.119.094.065.207.083.264.046.056-.037.368-2.398.735-5.691.35-3.1.67-5.655.698-5.683.038-.027.66-.184 1.387-.34 3.207-.711 19.072-4.272 19.223-4.318a.241.241 0 0 0 .16-.212c0-.102-1.585-1.291-4.546-3.432-2.5-1.789-4.603-3.311-4.679-3.366-.103-.074.387-1.753 2.934-9.87 1.688-5.37 3.093-9.88 3.131-10.009.038-.166.02-.258-.075-.295-.076-.028-2.5.968-5.386 2.204-2.886 1.237-5.291 2.26-5.33 2.279-.046.01-3.065-3.118-6.705-6.946C22.514.074 22.439 0 22.317 0c-.047 0-.113.055-.142.13"></path></svg></g><line x1="39.389" y1="1" x2="39.389" y2="28.001" stroke="#0019ff" stroke-linecap="round"></line><path fill="#0019ff" fill-rule="nonzero" d="M5.16 2.35L4.27 2.28Q4.22 1.75 4.22 1.56Q4.22 1.37 4.30 0.94L4.30 0.94Q4.94 0.96 6.25 0.96Q7.56 0.96 8.16 0.94L8.16 0.94Q8.23 1.30 8.23 1.48Q8.23 1.66 8.18 2.28L8.18 2.28L7.34 2.35Q7.18 4.63 7.18 10.25L7.18 10.25L7.18 13.92Q7.18 17.78 6.36 19.24Q5.54 20.69 3.36 20.69L3.36 20.69Q2.52 20.69 1.58 20.38Q0.65 20.06 0 19.58L0 19.58Q0.10 19.01 0.34 18.53Q0.58 18.05 0.77 17.86L0.77 17.86L0.96 17.69Q1.87 18.91 3.19 18.91Q4.51 18.91 4.94 17.77Q5.38 16.63 5.38 13.46L5.38 13.46L5.38 9.41Q5.38 4.46 5.16 2.35L5.16 2.35ZM10.63 10.68Q10.63 4.90 15.14 4.90Q19.66 4.90 19.66 10.68L19.66 10.68Q19.66 13.34 18.82 14.90L18.82 14.90Q17.86 16.73 15.14 16.73Q12.43 16.73 11.47 14.90L11.47 14.90Q10.63 13.34 10.63 10.68L10.63 10.68ZM12.60 10.62Q12.60 15.00 15.14 15.00Q17.69 15.00 17.69 10.62Q17.69 6.24 15.14 6.24Q12.60 6.24 12.60 10.62ZM29.04 9.86L29.04 9.86Q29.04 6.43 27 6.43L27 6.43Q25.54 6.43 24.22 7.99L24.22 7.99L24.22 14.45Q25.32 15.00 26.54 15.00L26.54 15.00Q29.04 15.00 29.04 9.86ZM24.22 6.53L24.22 6.53Q25.90 4.90 27.60 4.90Q29.30 4.90 30.19 6.29Q31.08 7.68 31.08 10.18L31.08 10.18Q31.08 13.56 29.92 15.14Q28.75 16.73 26.26 16.73L26.26 16.73Q24.70 16.73 22.10 16.10L22.10 16.10Q22.49 13.75 22.49 8.47Q22.49 3.19 22.37 1.63L22.37 1.63L21.41 1.56Q21.34 1.27 21.34 0.82Q21.34 0.36 21.36 0.22L21.36 0.22Q23.50 0.12 24.48 0L24.48 0L24.58 0.12Q24.24 3.00 24.22 6.53ZM36.94 14.98L37.80 15.05Q37.85 15.43 37.85 15.71Q37.85 15.98 37.78 16.39L37.78 16.39Q36.94 16.37 35.83 16.37Q34.73 16.37 33.91 16.39L33.91 16.39Q33.84 16.03 33.84 15.76Q33.84 15.48 33.89 15.05L33.89 15.05L34.73 14.98Q34.92 12.38 34.92 8.36Q34.92 4.34 34.70 2.35L34.70 2.35L33.89 2.28Q33.84 1.90 33.84 1.62Q33.84 1.34 33.91 0.94L33.91 0.94Q34.75 0.96 35.86 0.96Q36.96 0.96 37.78 0.94L37.78 0.94Q37.85 1.30 37.85 1.57Q37.85 1.85 37.80 2.28L37.80 2.28L36.89 2.35Q36.72 4.46 36.72 7.75L36.72 7.75Q38.02 7.90 39.84 7.90Q41.66 7.90 43.32 7.70L43.32 7.70Q43.27 3.89 43.10 2.35L43.10 2.35L42.29 2.28Q42.24 1.90 42.24 1.62Q42.24 1.34 42.31 0.94L42.31 0.94Q43.15 0.96 44.26 0.96Q45.36 0.96 46.18 0.94L46.18 0.94Q46.25 1.30 46.25 1.57Q46.25 1.85 46.20 2.28L46.20 2.28L45.29 2.35Q45.12 4.30 45.12 8.38Q45.12 12.46 45.34 14.98L45.34 14.98L46.20 15.05Q46.25 15.43 46.25 15.71Q46.25 15.98 46.18 16.39L46.18 16.39Q45.34 16.37 44.23 16.37Q43.13 16.37 42.31 16.39L42.31 16.39Q42.24 16.03 42.24 15.76Q42.24 15.48 42.29 15.05L42.29 15.05L43.13 14.98Q43.27 12.89 43.32 9.62L43.32 9.62Q41.78 9.46 39.84 9.46Q37.90 9.46 36.72 9.62L36.72 9.62Q36.77 13.03 36.94 14.98L36.94 14.98ZM49.78 13.27L49.78 13.27L49.80 10.70Q49.80 8.57 49.61 6.60L49.61 6.60L48.72 6.53Q48.65 6.14 48.65 5.74Q48.65 5.33 48.67 5.18L48.67 5.18Q49.90 5.16 51.65 4.97L51.65 4.97L51.77 5.09Q51.55 6.50 51.55 10.15L51.55 10.15L51.55 11.28Q51.55 13.30 51.92 14.15Q52.30 15.00 53.18 15.00L53.18 15.00Q54.43 15.00 55.90 13.54L55.90 13.54Q55.94 12.98 55.94 11.40L55.94 11.40L55.94 10.70Q55.94 8.57 55.75 6.60L55.75 6.60L54.86 6.53Q54.79 6.12 54.79 5.72Q54.79 5.33 54.82 5.18L54.82 5.18Q56.04 5.16 57.79 4.97L57.79 4.97L57.91 5.09Q57.70 6.50 57.70 10.15L57.70 10.15L57.70 10.92Q57.70 12.89 57.91 14.76L57.91 14.76L58.80 14.81Q58.85 15.34 58.85 15.59Q58.85 15.84 58.78 16.20L58.78 16.20Q57.84 16.25 56.16 16.44L56.16 16.44Q55.97 16.01 55.87 15.24L55.87 15.24Q54.07 16.73 52.56 16.73Q51.05 16.73 50.41 15.89Q49.78 15.05 49.78 13.27ZM70.49 7.97L70.49 7.97L70.46 10.30Q70.46 12.82 70.75 14.98L70.75 14.98L71.59 15.05Q71.64 15.58 71.64 15.78Q71.64 15.98 71.57 16.39L71.57 16.39Q70.90 16.37 69.55 16.37Q68.21 16.37 67.63 16.39L67.63 16.39Q67.56 16.03 67.56 15.71Q67.56 15.38 67.61 15.05L67.61 15.05L68.45 14.98Q68.64 12.17 68.64 10.16Q68.64 8.16 68.24 7.30Q67.85 6.43 66.89 6.43L66.89 6.43Q65.59 6.43 64.03 7.99L64.03 7.99Q64.01 8.62 64.01 10.91Q64.01 13.20 64.22 14.98L64.22 14.98L65.11 15.05Q65.16 15.58 65.16 15.78Q65.16 15.98 65.09 16.39L65.09 16.39Q64.42 16.37 63.12 16.37Q61.82 16.37 61.22 16.39L61.22 16.39Q61.15 16.03 61.15 15.71Q61.15 15.38 61.20 15.05L61.20 15.05L62.04 14.98Q62.26 12.58 62.26 10.57Q62.26 8.57 62.06 6.60L62.06 6.60L61.18 6.53Q61.10 6.12 61.10 5.72Q61.10 5.33 61.13 5.18L61.13 5.18Q62.35 5.16 64.10 4.97L64.10 4.97L64.22 5.09Q64.18 5.38 64.08 6.53L64.08 6.53Q64.82 5.78 65.81 5.34Q66.79 4.90 67.66 4.90L67.66 4.90Q70.49 4.90 70.49 7.97ZM74.45 12.48L74.45 12.48Q74.45 12.48 74.50 7.13L74.50 7.13Q74.50 6.77 74.47 6.58L74.47 6.58Q73.46 6.58 73.03 6.60L73.03 6.60Q72.89 6.22 72.89 5.84Q72.89 5.47 72.94 5.28L72.94 5.28L74.40 5.28L74.28 3.50Q74.88 3.31 75.54 3.31Q76.20 3.31 76.63 3.41L76.63 3.41L76.42 5.26Q77.74 5.23 79.08 5.11L79.08 5.11Q79.22 5.42 79.22 5.80Q79.22 6.17 79.13 6.70L79.13 6.70Q78.24 6.65 76.32 6.60L76.32 6.60Q76.27 7.08 76.27 8.02L76.27 8.02L76.27 12.89Q76.27 13.51 76.33 13.91Q76.39 14.30 76.64 14.63Q76.90 14.95 77.38 14.95L77.38 14.95Q78.43 14.95 79.39 14.21L79.39 14.21Q79.90 14.93 79.90 16.15L79.90 16.15Q78.58 16.73 77.60 16.73Q76.63 16.73 76.06 16.48Q75.48 16.22 75.17 15.88Q74.86 15.53 74.69 14.90L74.69 14.90Q74.45 14.02 74.45 12.48ZM85.25 11.04L85.25 11.04Q84.07 11.04 83.06 10.92L83.06 10.92Q83.11 15.00 85.78 15.00L85.78 15.00Q87.12 15.00 88.75 13.51L88.75 13.51Q89.45 14.23 89.64 15.41L89.64 15.41Q87.67 16.73 85.46 16.73Q83.26 16.73 82.18 15.20Q81.10 13.68 81.10 10.73Q81.10 7.78 82.31 6.34Q83.52 4.90 85.75 4.90L85.75 4.90Q87.41 4.90 88.49 5.90Q89.57 6.91 89.58 8.38Q89.59 9.84 89.33 10.46L89.33 10.46Q87.53 11.04 85.25 11.04ZM85.58 6.24L85.58 6.24Q83.35 6.24 83.09 9.53L83.09 9.53Q84.17 9.65 85.46 9.65Q86.76 9.65 87.48 9.41L87.48 9.41Q87.58 8.81 87.58 8.52L87.58 8.52Q87.58 7.46 87.04 6.85Q86.50 6.24 85.58 6.24ZM91.70 15.05L92.54 14.98Q92.76 12.58 92.76 10.57Q92.76 8.57 92.57 6.60L92.57 6.60L91.68 6.53Q91.61 6.14 91.61 5.74Q91.61 5.33 91.63 5.18L91.63 5.18Q92.86 5.16 94.61 4.97L94.61 4.97L94.73 5.09Q94.70 5.23 94.58 6.50L94.58 6.50Q95.14 5.81 95.87 5.35Q96.60 4.90 97.31 4.90Q98.02 4.90 98.54 5.40Q99.07 5.90 99.07 6.72L99.07 6.72Q99.07 8.06 97.94 8.06L97.94 8.06Q97.30 8.06 96.91 7.64Q96.53 7.22 96.53 6.53L96.53 6.53Q96.48 6.50 96.36 6.50L96.36 6.50Q95.47 6.50 94.54 7.85L94.54 7.85Q94.51 8.52 94.51 10.86Q94.51 13.20 94.73 14.98L94.73 14.98L95.62 15.05Q95.66 15.58 95.66 15.78Q95.66 15.98 95.59 16.39L95.59 16.39Q94.92 16.37 93.62 16.37Q92.33 16.37 91.73 16.39L91.73 16.39Q91.66 16.03 91.66 15.71Q91.66 15.38 91.70 15.05L91.70 15.05Z" transform="translate(49.389, 4.157)"></path></svg>