<?xml version="1.0" standalone="no"?>
<svg xmlns="http://www.w3.org/2000/svg" viewBox="0 0 133.704 36" width="133.704" height="36"><g fill="#2cb1bc" color="#2cb1bc" transform="translate(0 3.9999999999999982) scale(0.5600001)"><svg width="50.0" height="50.0" x="0.0" y="0.0" viewBox="0 0 50 50"><path fill="currentColor" fill-rule="nonzero" d="M42.74 7.68C38.12 3.05 31.96.51 25.42.51 18.88.51 12.73 3.06 8.1 7.68 3.48 12.31.93 18.46.93 25c0 6.54 2.55 12.69 7.17 17.32 4.63 4.63 10.78 7.17 17.32 7.17 2.56 0 5.09-.4 7.51-1.18l.15-.05c.58-.19.58-.19 1.21-.44l.12-.05a24.6 24.6 0 0 0 6.78-4.05c.65-.55.93-.8 1.54-1.41 4.63-4.63 7.17-10.78 7.17-17.32.01-6.53-2.54-12.68-7.16-17.31zM24.62 42.16v5.56a22.616 22.616 0 0 1-14.11-5.56h14.11zm0-7.93v6.18H8.7a22.46 22.46 0 0 1-4.07-6.18h19.99zM2.68 24.55c.11-5.62 2.24-10.9 6.06-15.01l.01 15.01H2.68zm21.94 1.75v6.18H3.94c-.69-1.99-1.1-4.06-1.22-6.18h21.9zM10.49 7.84c1.86-1.62 3.94-2.91 6.19-3.85v20.55H10.5l-.01-16.7zm14.13-5.57v22.27h-6.18V3.35c1.99-.64 4.07-1 6.18-1.08zm23.5 24.03a22.599 22.599 0 0 1-5.89 14v-14h5.89zm-7.64 0v15.73a22.423 22.423 0 0 1-6.18 3.9V26.3h6.18zm-7.93 0v20.3c-1.99.66-4.07 1.03-6.18 1.12V26.3h6.18zm15.6-1.75H26.37v-6.18h20.8c.61 2 .94 4.07.98 6.18zm-21.78-7.93v-6.18h16.51c1.55 1.86 2.79 3.94 3.68 6.18H26.37zm0-7.93V2.28c5.6.23 10.86 2.49 14.89 6.41H26.37z"></path></svg></g><path fill="#2cb1bc" fill-rule="nonzero" d="M5.04 20.93Q3.62 20.93 2.47 20.38Q1.32 19.82 0.66 18.76Q0 17.69 0 16.18L0 16.18L0 11.02L4.06 11.02L4.06 15.94Q4.06 16.49 4.28 16.81Q4.51 17.14 4.99 17.14L4.99 17.14Q5.45 17.14 5.68 16.84Q5.90 16.54 5.90 15.98L5.90 15.98L5.90 0.12L10.06 0.12L10.06 15.58Q10.06 17.18 9.42 18.40Q8.78 19.61 7.64 20.27Q6.50 20.93 5.04 20.93L5.04 20.93ZM16.68 20.93Q11.42 20.93 11.42 15.48L11.42 15.48L11.42 8.42Q11.42 5.93 12.83 4.45Q14.23 2.98 16.68 2.98L16.68 2.98Q19.13 2.98 20.53 4.45Q21.94 5.93 21.94 8.42L21.94 8.42L21.94 15.48Q21.94 20.93 16.68 20.93L16.68 20.93ZM16.68 17.69Q17.18 17.69 17.42 17.33Q17.66 16.97 17.66 16.34L17.66 16.34L17.66 7.75Q17.66 6.22 16.68 6.22L16.68 6.22Q15.70 6.22 15.70 7.75L15.70 7.75L15.70 16.34Q15.70 16.97 15.94 17.33Q16.18 17.69 16.68 17.69L16.68 17.69ZM30.29 20.93Q28.56 20.93 27.82 18.86L27.82 18.86L27.82 20.74L23.50 20.74L23.50 0L27.82 0L27.82 4.01Q28.82 2.98 30.17 2.98L30.17 2.98Q32.21 2.98 33.10 4.19Q33.98 5.40 33.98 7.68L33.98 7.68L33.98 16.15Q33.98 18.31 33.07 19.62Q32.16 20.93 30.29 20.93L30.29 20.93ZM28.87 17.66Q29.30 17.66 29.48 17.39Q29.66 17.11 29.70 16.69Q29.74 16.27 29.74 15.38L29.74 15.38L29.74 8.06Q29.74 7.13 29.57 6.67Q29.40 6.22 28.85 6.22L28.85 6.22Q28.25 6.22 28.03 6.67Q27.82 7.13 27.82 8.02L27.82 8.02L27.82 15.38Q27.82 16.54 28.01 17.10Q28.20 17.66 28.87 17.66L28.87 17.66ZM39.70 20.74L35.59 20.74L35.59 0.12L39.70 0.12L39.70 7.49L41.64 7.49L41.64 0.12L45.74 0.12L45.74 20.74L41.64 20.74L41.64 11.38L39.70 11.38L39.70 20.74ZM50.88 20.93Q48.91 20.93 48.18 19.75Q47.45 18.58 47.45 16.25L47.45 16.25L47.45 3.17L51.67 3.17L51.67 15.41Q51.67 15.58 51.67 16.31Q51.67 17.04 51.90 17.34Q52.13 17.64 52.61 17.64L52.61 17.64Q53.26 17.64 53.42 17.10Q53.59 16.56 53.59 15.55L53.59 15.55L53.59 15.41L53.62 3.17L57.79 3.17L57.79 20.74L53.59 20.74L53.59 18.86Q53.16 19.97 52.58 20.45Q52.01 20.93 50.88 20.93L50.88 20.93ZM59.47 20.74L59.47 3.17L63.67 3.17L63.67 5.40Q63.94 4.32 64.58 3.65Q65.23 2.98 66.31 2.98L66.31 2.98Q68.09 2.98 68.94 4.07Q69.79 5.16 69.79 7.18L69.79 7.18L69.79 20.74L65.66 20.74L65.66 7.61Q65.66 7.03 65.44 6.62Q65.21 6.22 64.73 6.22L64.73 6.22Q64.08 6.22 63.88 6.80Q63.67 7.39 63.67 8.38L63.67 8.38L63.67 20.74L59.47 20.74ZM75.07 20.93Q73.42 20.93 72.79 20.23Q72.17 19.54 72.17 18L72.17 18L72.17 7.03L70.99 7.03L70.99 3.84L72.17 3.84L72.17 0.12L76.25 0.12L76.25 3.84L77.45 3.84L77.45 7.03L76.25 7.03L76.25 16.90Q76.25 17.35 76.32 17.57Q76.39 17.78 76.70 17.78L76.70 17.78Q76.94 17.78 77.16 17.76Q77.38 17.74 77.45 17.74L77.45 17.74L77.45 20.62Q77.09 20.71 76.40 20.82Q75.72 20.93 75.07 20.93L75.07 20.93ZM83.69 20.93Q80.98 20.93 79.80 19.44Q78.62 17.95 78.62 15L78.62 15L78.62 7.94Q78.62 5.52 80.02 4.25Q81.41 2.98 83.90 2.98L83.90 2.98Q88.97 2.98 88.97 7.94L88.97 7.94L88.97 9.22Q88.97 11.14 88.92 12.34L88.92 12.34L82.82 12.34L82.82 15.74Q82.82 16.66 83.02 17.17Q83.21 17.69 83.83 17.69L83.83 17.69Q84.31 17.69 84.52 17.40Q84.72 17.11 84.76 16.74Q84.79 16.37 84.79 15.65L84.79 15.65L84.79 13.94L88.97 13.94L88.97 14.95Q88.97 18.02 87.78 19.48Q86.59 20.93 83.69 20.93L83.69 20.93ZM82.80 10.25L84.79 10.25L84.79 7.99Q84.79 6.10 83.86 6.10L83.86 6.10Q82.80 6.10 82.80 7.99L82.80 7.99L82.80 10.25ZM90.48 20.74L90.48 3.17L94.68 3.17L94.68 5.11Q94.99 4.08 95.77 3.52Q96.55 2.95 97.70 2.95L97.70 2.95L97.70 6.46Q96.82 6.46 95.75 6.71Q94.68 6.96 94.68 7.30L94.68 7.30L94.68 20.74L90.48 20.74Z" transform="translate(36, 7.536)"></path></svg>